<svg width="39" height="44" viewBox="0 0 39 44" fill="none" xmlns="http://www.w3.org/2000/svg">
<path d="M32.5714 23.3751C32.6388 30.0333 38.93 32.2494 39 32.278C38.9465 32.434 37.9945 35.4352 35.6854 38.5354C33.6891 41.2159 31.6172 43.8861 28.3535 43.9414C25.146 43.9964 24.1147 42.1945 20.4484 42.1945C16.7828 42.1945 15.637 43.8871 12.6016 43.9971C9.45093 44.1064 7.05237 41.0987 5.03922 38.4285C0.925372 32.9641 -2.21783 22.9908 2.00304 16.2589C4.1 12.9154 7.8464 10.7986 11.9131 10.7443C15.0069 10.69 17.9263 12.6562 19.8186 12.6562C21.7083 12.6562 25.2567 10.2913 28.9874 10.6384C30.5493 10.6979 34.9333 11.2176 37.7472 15.0026C37.5208 15.1315 32.5172 17.8075 32.5714 23.374M26.5439 7.02537C28.2166 5.16574 29.3429 2.57599 29.0361 0C26.6248 0.0893726 23.7091 1.47602 21.9799 3.33429C20.43 4.9808 19.0725 7.61523 19.4392 10.1404C22.1259 10.3315 24.8717 8.88604 26.5439 7.02537Z" fill="black"/>
</svg>
