<svg width="146" height="122" viewBox="0 0 146 122" fill="none" xmlns="http://www.w3.org/2000/svg">
<path d="M3 3H114C130.016 3 143 15.9837 143 32V119H39C19.1177 119 3 102.882 3 83V3Z" stroke="#0D26C9" stroke-width="6"/>
<path d="M73.8338 62.864C73.8338 66.256 73.2684 69.3707 72.1378 72.208C71.0071 75.0453 69.4178 77.488 67.3698 79.536C65.3218 81.584 62.8578 83.1733 59.9778 84.304C57.0978 85.4347 53.8978 86 50.3778 86H32.7458V39.728H50.3778C53.8978 39.728 57.0978 40.304 59.9778 41.456C62.8578 42.5867 65.3218 44.176 67.3698 46.224C69.4178 48.2507 71.0071 50.6827 72.1378 53.52C73.2684 56.3573 73.8338 59.472 73.8338 62.864ZM65.0018 62.864C65.0018 60.3253 64.6604 58.0533 63.9778 56.048C63.3164 54.0213 62.3458 52.3147 61.0658 50.928C59.8071 49.52 58.2711 48.4427 56.4578 47.696C54.6658 46.9493 52.6391 46.576 50.3778 46.576H41.3858V79.152H50.3778C52.6391 79.152 54.6658 78.7787 56.4578 78.032C58.2711 77.2853 59.8071 76.2187 61.0658 74.832C62.3458 73.424 63.3164 71.7173 63.9778 69.712C64.6604 67.6853 65.0018 65.4027 65.0018 62.864ZM98.7453 79.28C100.345 79.28 101.689 79.088 102.777 78.704C103.865 78.32 104.729 77.808 105.369 77.168C106.031 76.528 106.5 75.7813 106.777 74.928C107.076 74.0747 107.225 73.168 107.225 72.208C107.225 71.2053 107.065 70.3093 106.745 69.52C106.425 68.7093 105.924 68.0267 105.241 67.472C104.559 66.896 103.673 66.4587 102.585 66.16C101.519 65.8613 100.228 65.712 98.7133 65.712H90.0413V79.28H98.7453ZM90.0413 46.384V59.76H96.8893C99.8333 59.76 102.052 59.2267 103.545 58.16C105.06 57.0933 105.817 55.3973 105.817 53.072C105.817 50.6613 105.135 48.944 103.769 47.92C102.404 46.896 100.271 46.384 97.3693 46.384H90.0413ZM97.3693 39.728C100.399 39.728 102.991 40.016 105.145 40.592C107.3 41.168 109.06 41.9893 110.425 43.056C111.812 44.1227 112.825 45.4133 113.465 46.928C114.105 48.4427 114.425 50.1493 114.425 52.048C114.425 53.136 114.265 54.1813 113.945 55.184C113.625 56.1653 113.124 57.0933 112.441 57.968C111.78 58.8213 110.927 59.6 109.881 60.304C108.857 61.008 107.631 61.6053 106.201 62.096C112.559 63.5253 115.737 66.96 115.737 72.4C115.737 74.3627 115.364 76.176 114.617 77.84C113.871 79.504 112.783 80.944 111.353 82.16C109.924 83.3547 108.164 84.2933 106.073 84.976C103.983 85.6587 101.593 86 98.9053 86H81.4333V39.728H97.3693Z" fill="#07C0E4"/>
</svg>
