<svg width="43" height="44" viewBox="0 0 43 44" fill="none" xmlns="http://www.w3.org/2000/svg">
<g clip-path="url(#clip0_12_60)">
<path d="M42.9795 22.4116C42.9795 20.609 42.8332 19.2935 42.5166 17.9293H21.9283V26.0656H34.0132C33.7696 28.0876 32.4539 31.1327 29.5301 33.1788L29.4891 33.4512L35.9987 38.4933L36.4497 38.5383C40.5917 34.7136 42.9795 29.0863 42.9795 22.4116Z" fill="#4285F4"/>
<path d="M21.9283 43.8489C27.8489 43.8489 32.8193 41.8999 36.4497 38.5383L29.5301 33.1789C27.6784 34.47 25.1932 35.3713 21.9283 35.3713C16.1296 35.3713 11.2079 31.5468 9.45347 26.2606L9.19631 26.2825L2.42751 31.52L2.33899 31.766C5.94494 38.9279 13.3519 43.8489 21.9283 43.8489Z" fill="#34A853"/>
<path d="M9.45345 26.2606C8.99053 24.8965 8.72262 23.4347 8.72262 21.9244C8.72262 20.414 8.99053 18.9524 9.42909 17.5883L9.41683 17.2977L2.5632 11.9761L2.33896 12.0827C0.852777 15.0547 0 18.3922 0 21.9244C0 25.4567 0.852777 28.794 2.33896 31.766L9.45345 26.2606Z" fill="#FBBC05"/>
<path d="M21.9283 8.47739C26.0459 8.47739 28.8235 10.2557 30.4072 11.7418L36.5959 5.70035C32.7951 2.16809 27.8489 0 21.9283 0C13.3519 0 5.94494 4.92078 2.33899 12.0827L9.42912 17.5882C11.2079 12.302 16.1296 8.47739 21.9283 8.47739Z" fill="#EB4335"/>
</g>
<defs>
<clipPath id="clip0_12_60">
<rect width="43" height="44" fill="white"/>
</clipPath>
</defs>
</svg>
